<svg xmlns="http://www.w3.org/2000/svg" viewBox="0 0 3000 514" fill-rule="evenodd" clip-rule="evenodd" stroke-linejoin="round"
     stroke-miterlimit="1.414">
    <path d="M514.565 232.78c0-5.385-.875-10.287-2.601-14.751-1.726-4.435-4.185-8.237-7.365-11.392-3.19-3.118-6.978-5.565-11.392-7.315-4.427-1.713-9.316-2.589-14.677-2.589h-60.727v96.845h60.727c5.36 0 10.25-.838 14.677-2.58 4.414-1.738 8.203-4.185 11.392-7.328 3.18-3.134 5.64-6.902 7.365-11.316 1.726-4.427 2.6-9.354 2.6-14.785zm27.548 24.789c0 9.245-1.61 17.76-4.823 25.543-3.201 7.757-7.636 14.46-13.284 20.062-5.673 5.635-12.38 10.032-20.137 13.213-7.782 3.18-16.223 4.777-25.339 4.777h-74.386c-1.992 0-3.826-.363-5.506-1.067-1.713-.709-3.176-1.684-4.402-2.914-1.246-1.225-2.192-2.689-2.922-4.414-.696-1.68-1.059-3.53-1.059-5.494V183.062c0-1.897.363-3.706 1.06-5.398.729-1.701 1.675-3.177 2.921-4.46a12.943 12.943 0 014.402-2.96c1.68-.696 3.514-1.071 5.506-1.071h74.386c9.116 0 17.557 1.609 25.34 4.785 7.756 3.18 14.463 7.582 20.136 13.18 5.648 5.636 10.083 12.338 13.284 20.145 3.214 7.807 4.823 16.298 4.823 25.497zM714.856 220.045c0 6.294-.792 11.896-2.384 16.848-1.596 4.944-3.685 9.316-6.298 13.097-2.626 3.776-5.673 6.99-9.174 9.687-3.514 2.672-7.124 4.893-10.867 6.623-3.751 1.738-7.54 2.985-11.38 3.764-3.86.78-7.481 1.159-10.874 1.159h-11.117v49.94H624.99v-49.94h-11.02c-3.385 0-7.003-.38-10.867-1.159a52.19 52.19 0 01-11.438-3.764c-3.789-1.73-7.403-3.951-10.854-6.623-3.451-2.697-6.523-5.91-9.187-9.687-2.638-3.78-4.76-8.166-6.344-13.134-1.596-5.002-2.384-10.6-2.384-16.81v-50.874h27.556v50.873c0 3.597.563 6.836 1.692 9.687 1.126 2.855 2.722 5.327 4.76 7.39 2.051 2.026 4.544 3.606 7.47 4.702 2.939 1.1 6.21 1.65 9.812 1.65h49.694c2.613-.441 5.302-.979 8.057-1.65a21.51 21.51 0 007.52-3.447c2.267-1.63 4.126-3.88 5.614-6.782 1.496-2.892 2.23-6.744 2.23-11.55v-50.873h27.556zM891.103 307.298c0 1.967-.371 3.814-1.117 5.502a14.773 14.773 0 01-2.951 4.406c-1.23 1.233-2.71 2.205-4.398 2.913a14.04 14.04 0 01-5.41 1.067c-1.701 0-3.414-.312-5.14-.958-1.734-.638-3.28-1.68-4.61-3.085L766.722 214.121v107.04h-27.56V182.847c0-2.818.792-5.373 2.376-7.678 1.605-2.301 3.635-3.993 6.106-5.131 2.614-1.067 5.298-1.318 8.058-.805 2.746.542 5.118 1.813 7.098 3.877l100.671 103.105v-107.04h27.536zM943.364 256.284h96.87v-59.552h-48.422c-.863 0-2.651.133-5.36.371-2.71.267-5.865.875-9.43 1.859-3.571.996-7.327 2.51-11.295 4.568-3.956 2.051-7.59 4.869-10.9 8.479-3.322 3.601-6.056 8.082-8.216 13.505-2.155 5.398-3.247 11.942-3.247 19.653zm124.418 64.878h-27.548v-37.318h-96.87v37.318h-27.543v-75.995c0-11.092 1.905-21.308 5.731-30.616 3.814-9.34 9.112-17.352 15.898-24.055 6.777-6.715 14.801-11.942 24.034-15.71 9.27-3.718 19.365-5.61 30.328-5.61h62.082c1.909 0 3.718.37 5.418 1.067 1.705.704 3.168 1.7 4.44 2.96a13.445 13.445 0 012.963 4.463c.717 1.689 1.067 3.502 1.067 5.394zM1269.428 321.161h-27.76v-90.517l-48.702 84.173c-1.213 2.193-2.888 3.848-5.04 4.99-2.142 1.138-4.472 1.688-6.94 1.688-2.413 0-4.643-.55-6.727-1.688-2.088-1.142-3.718-2.797-4.918-4.99l-49.227-84.173v90.517h-27.548V182.842c0-3.163.938-5.993 2.81-8.465 1.866-2.468 4.326-4.135 7.364-4.99a14.435 14.435 0 014.448-.358c1.5.108 2.91.42 4.289.946a13.326 13.326 0 013.768 2.234 13.355 13.355 0 012.864 3.44l62.707 107.135 62.77-107.136c1.608-2.684 3.863-4.606 6.702-5.719 2.867-1.125 5.86-1.309 8.978-.542 2.964.855 5.385 2.522 7.303 4.99 1.909 2.472 2.86 5.302 2.86 8.465z"
          fill="#272324"/>
    <path fill="#272324" d="M1321.968 169.223h-27.543V321.21h27.543z"/>
    <path d="M1484.95 321.162h-99.38c-2.555 0-5.285-.313-8.211-.913a41.913 41.913 0 01-8.708-2.797 39.23 39.23 0 01-8.19-4.948c-2.626-2.017-4.944-4.44-6.957-7.315-2.017-2.86-3.618-6.17-4.806-9.958-1.213-3.764-1.813-8.028-1.813-12.767V207.86c0-2.53.3-5.277.913-8.215.583-2.922 1.521-5.815 2.805-8.683a38.357 38.357 0 014.977-8.215c2.05-2.61 4.497-4.915 7.373-6.94 2.843-2.014 6.153-3.623 9.892-4.81 3.755-1.21 7.986-1.822 12.725-1.822h99.38v27.556h-99.38c-3.622 0-6.365.971-8.261 2.868-1.93 1.917-2.88 4.735-2.88 8.478v74.387c0 3.534.975 6.273 2.93 8.215 1.938 1.938 4.677 2.901 8.211 2.901h99.38zM1690.547 273.176c0 5.444-.684 10.333-2.064 14.677-1.38 4.351-3.2 8.203-5.468 11.512-2.268 3.323-4.902 6.14-7.95 8.491-3.046 2.326-6.189 4.223-9.428 5.719a47.156 47.156 0 01-9.928 3.285c-3.36.708-6.511 1.067-9.487 1.067h-106.366v-27.582h106.366c5.314 0 9.416-1.559 12.354-4.651 2.939-3.118 4.414-7.29 4.414-12.518 0-2.542-.408-4.868-1.18-6.994-.779-2.142-1.892-3.968-3.342-5.527-1.45-1.559-3.226-2.76-5.302-3.597-2.084-.85-4.398-1.272-6.944-1.272h-63.412c-4.451 0-9.27-.787-14.426-2.384-5.156-1.596-9.941-4.164-14.368-7.703-4.41-3.534-8.095-8.153-11.03-13.897-2.938-5.706-4.405-12.713-4.405-20.962 0-8.286 1.467-15.264 4.406-20.95 2.934-5.697 6.619-10.336 11.029-13.909 4.427-3.563 9.212-6.152 14.368-7.748 5.156-1.584 9.975-2.385 14.426-2.385h93.84v27.577h-93.84c-5.24 0-9.32 1.584-12.254 4.777-2.939 3.176-4.402 7.386-4.402 12.638 0 5.277 1.463 9.458 4.402 12.534 2.934 3.08 7.015 4.627 12.254 4.627h63.62c2.985.063 6.127.48 9.45 1.221 3.309.746 6.627 1.897 9.903 3.443 3.297 1.56 6.428 3.527 9.379 5.886 2.984 2.367 5.61 5.218 7.915 8.528 2.289 3.335 4.123 7.149 5.469 11.467 1.33 4.301 2 9.17 2 14.63M1845.475 227.366c0-5.448-.875-10.37-2.613-14.802-1.73-4.41-4.16-8.203-7.303-11.341-3.143-3.14-6.944-5.59-11.359-7.316-4.414-1.725-9.27-2.6-14.568-2.6h-37.343c-5.36 0-10.266.875-14.68 2.6-4.41 1.726-8.212 4.177-11.4 7.316-3.18 3.138-5.628 6.931-7.366 11.341-1.73 4.431-2.592 9.354-2.592 14.802v29.044c0 5.465.862 10.383 2.592 14.797 1.738 4.414 4.185 8.203 7.365 11.342 3.19 3.143 6.99 5.577 11.4 7.315 4.415 1.743 9.32 2.605 14.681 2.605h37.127c5.373 0 10.266-.862 14.68-2.605 4.41-1.738 8.212-4.172 11.413-7.315 3.168-3.139 5.623-6.928 7.353-11.342 1.738-4.414 2.613-9.332 2.613-14.797zm27.569 29.044c0 9.279-1.605 17.782-4.773 25.555-3.188 7.783-7.603 14.498-13.259 20.158-5.652 5.66-12.355 10.062-20.103 13.193-7.72 3.15-16.165 4.722-25.277 4.722h-37.343c-9.116 0-17.569-1.571-25.339-4.722-7.77-3.13-14.488-7.532-20.149-13.193-5.648-5.66-10.095-12.375-13.31-20.158-3.213-7.773-4.822-16.276-4.822-25.555v-29.044c0-9.187 1.61-17.703 4.823-25.497 3.214-7.816 7.661-14.535 13.31-20.158 5.66-5.61 12.379-10.025 20.148-13.2 7.77-3.169 16.223-4.778 25.34-4.778h37.342c9.112 0 17.557 1.61 25.277 4.777 7.748 3.176 14.45 7.59 20.103 13.201 5.656 5.623 10.07 12.342 13.26 20.158 3.167 7.794 4.772 16.31 4.772 25.497zM2039.958 317.928h-125.772c-1.967 0-3.814-.358-5.506-1.067-1.7-.709-3.176-1.667-4.398-2.914-1.238-1.221-2.209-2.7-2.926-4.401-.696-1.688-1.042-3.535-1.042-5.515V165.85h27.569v124.497h112.075zM2213.204 304.03c0 1.98-.359 3.827-1.055 5.515-.721 1.7-1.705 3.18-2.964 4.402-1.28 1.246-2.767 2.205-4.46 2.913a13.918 13.918 0 01-5.41 1.067h-62.153c-5.864 0-11.8-.646-17.806-1.917a78.997 78.997 0 01-17.449-5.877c-5.614-2.664-10.9-6.028-15.843-10.12-4.952-4.102-9.291-8.97-12.988-14.585-3.718-5.632-6.64-12.06-8.754-19.32-2.134-7.228-3.176-15.31-3.176-24.21V165.85h27.569v76.05c0 7.77 1.08 14.343 3.239 19.715 2.146 5.373 4.88 9.854 8.199 13.455 3.334 3.623 6.981 6.44 10.929 8.491 3.955 2.063 7.732 3.572 11.291 4.556 3.577.996 6.72 1.605 9.442 1.872 2.721.237 4.51.358 5.347.358h48.485V165.85h27.557zM2389.7 193.426h-60.752v124.5h-27.581v-124.5h-60.86v-27.578H2389.7z"
          fill="#272324"/>
    <path fill="#272324" d="M2444.096 165.85h-27.568v152.077h27.568z"/>
    <path d="M2611.034 227.366c0-5.448-.85-10.37-2.589-14.802-1.742-4.41-4.19-8.203-7.328-11.341-3.143-3.14-6.932-5.59-11.333-7.316-4.44-1.725-9.283-2.6-14.585-2.6h-37.343c-5.36 0-10.266.875-14.689 2.6-4.414 1.726-8.216 4.177-11.383 7.316-3.185 3.138-5.644 6.931-7.37 11.341-1.73 4.431-2.605 9.354-2.605 14.802v29.044c0 5.465.875 10.383 2.605 14.797 1.726 4.414 4.185 8.203 7.37 11.342 3.167 3.143 6.969 5.577 11.383 7.315 4.423 1.743 9.329 2.605 14.689 2.605h37.13c5.373 0 10.263-.862 14.677-2.605 4.427-1.738 8.228-4.172 11.404-7.315 3.176-3.139 5.636-6.928 7.378-11.342 1.738-4.414 2.589-9.332 2.589-14.797zm27.58 29.044c0 9.279-1.608 17.782-4.784 25.555-3.177 7.783-7.603 14.498-13.251 20.158-5.66 5.66-12.342 10.062-20.1 13.193-7.748 3.15-16.176 4.722-25.28 4.722h-37.343c-9.112 0-17.557-1.571-25.339-4.722-7.77-3.13-14.497-7.532-20.145-13.193-5.66-5.66-10.087-12.375-13.297-20.158-3.23-7.773-4.822-16.276-4.822-25.555v-29.044c0-9.187 1.592-17.703 4.822-25.497 3.21-7.816 7.637-14.535 13.297-20.158 5.648-5.61 12.376-10.025 20.145-13.2 7.782-3.169 16.227-4.778 25.339-4.778h37.343c9.104 0 17.532 1.61 25.28 4.777 7.758 3.176 14.44 7.59 20.1 13.201 5.648 5.623 10.074 12.342 13.25 20.158 3.177 7.794 4.786 16.31 4.786 25.497zM2823.183 306.824c0 1.98-.383 3.814-1.13 5.514a14.33 14.33 0 01-2.954 4.406 13.487 13.487 0 01-4.406 2.91c-1.688.708-3.49 1.058-5.407 1.058-1.692 0-3.417-.312-5.143-.95-1.738-.634-3.276-1.663-4.606-3.08l-100.746-105.17V318.6h-27.582v-140.29c0-2.847.8-5.386 2.385-7.691 1.609-2.313 3.634-4.018 6.119-5.144 2.6-1.067 5.29-1.33 8.048-.804 2.768.53 5.132 1.826 7.111 3.86l100.743 105.11V166.52h27.568zM3000 273.176c0 5.444-.709 10.333-2.076 14.677-1.38 4.351-3.193 8.203-5.456 11.512-2.268 3.323-4.927 6.14-7.978 8.491-3.018 2.326-6.148 4.223-9.42 5.719-3.256 1.488-6.553 2.58-9.92 3.285-3.356.708-6.524 1.067-9.488 1.067h-106.365v-27.582h106.365c5.302 0 9.416-1.559 12.368-4.651 2.922-3.118 4.376-7.29 4.376-12.518 0-2.542-.375-4.868-1.15-6.994-.792-2.142-1.897-3.968-3.347-5.527-1.45-1.559-3.206-2.76-5.302-3.597-2.089-.85-4.398-1.272-6.945-1.272h-63.415c-4.456 0-9.254-.787-14.426-2.384-5.152-1.596-9.95-4.164-14.352-7.703-4.435-3.534-8.115-8.153-11.029-13.897-2.938-5.706-4.414-12.713-4.414-20.962 0-8.286 1.476-15.264 4.414-20.95 2.914-5.697 6.594-10.336 11.03-13.909 4.401-3.563 9.199-6.152 14.35-7.748 5.173-1.584 9.971-2.385 14.427-2.385h93.852v27.577h-93.852c-5.223 0-9.316 1.584-12.238 4.777-2.939 3.176-4.418 7.386-4.418 12.638 0 5.277 1.48 9.458 4.418 12.534 2.922 3.08 7.015 4.627 12.238 4.627h63.632c2.951.063 6.107.48 9.429 1.221 3.334.746 6.619 1.897 9.903 3.443 3.323 1.56 6.428 3.527 9.404 5.886 2.968 2.367 5.585 5.218 7.899 8.528 2.292 3.335 4.126 7.149 5.448 11.467 1.354 4.301 2.038 9.17 2.038 14.63"
          fill="#272324"/>
    <path d="M96.582 301.593c5.66-2.23 10.517-5.348 14.593-9.391 4.068-4.018 7.207-8.85 9.425-14.497 2.23-5.66 3.334-11.98 3.334-18.95v-31.753c0-6.894-1.104-13.167-3.334-18.874-2.218-5.71-5.357-10.554-9.425-14.597-4.076-4.005-8.932-7.148-14.593-9.366-5.66-2.205-11.92-3.322-18.803-3.322H10.646C5.43 193.531 1.822 207.057 0 221.125v41.516c1.905 14.801 5.79 28.998 11.438 42.261h66.341c6.882 0 13.143-1.104 18.803-3.31M198.694 186.95c-3.743 4.064-5.627 9.45-5.627 16.152 0 6.786 1.884 12.138 5.627 16.081 3.764 3.947 8.995 5.898 15.685 5.898h81.452c3.797.1 7.828.625 12.088 1.571 4.051.913 8.103 2.318 12.12 4.185a160.44 160.44 0 00-11.608-49.993H214.38c-6.69 0-11.921 2.025-15.685 6.106"
          fill="#999"/>
    <path d="M159.407 340.206v-35.305h136.147c5.682 0 10.23-1.475 13.789-4.256a160.591 160.591 0 007.098-23.12c-.237-1.222-.512-2.435-.92-3.565-.997-2.717-2.435-5.056-4.282-7.048-1.859-2.013-4.139-3.551-6.802-4.606-2.66-1.105-5.61-1.655-8.883-1.655h-81.176c-5.694 0-11.859-1.009-18.445-3.043-6.619-2.055-12.746-5.327-18.407-9.862-5.647-4.518-10.362-10.433-14.1-17.769-3.777-7.328-5.649-16.298-5.649-26.877 0-10.575 1.872-19.52 5.648-26.797 3.74-7.295 8.454-13.218 14.101-17.786 5.66-4.573 11.788-7.878 18.407-9.908 6.586-2.038 12.751-3.055 18.445-3.055h74.065c-29.344-39.215-76.162-64.591-128.902-64.591-52.733 0-99.546 25.376-128.903 64.59H77.78c11.667 0 22.492 2.026 32.45 6.115 9.937 4.064 18.524 9.704 25.78 16.886 7.233 7.194 12.918 15.793 17.028 25.806 4.127 9.99 6.19 20.866 6.19 32.641v31.754c0 11.862-2.063 22.75-6.19 32.729-4.11 9.94-9.795 18.515-17.027 25.701-7.257 7.207-15.844 12.842-25.78 16.906-9.959 4.077-20.784 6.115-32.45 6.115H32.196c29.427 38.065 75.499 62.603 127.344 62.603 51.84 0 97.911-24.538 127.343-62.603z"
          fill="#999"/>
</svg>
